<svg width="16" height="16" viewBox="0 0 16 16" fill="none" xmlns="http://www.w3.org/2000/svg">
<path fill-rule="evenodd" clip-rule="evenodd" d="M6.60007 1.56585C6.75407 1.54777 6.91012 1.56045 7.05917 1.60314C7.20823 1.64584 7.34733 1.7177 7.4684 1.81456C7.58948 1.91142 7.69012 2.03135 7.76449 2.1674C7.83886 2.30345 7.88549 2.45291 7.90166 2.60712C7.90374 2.62691 7.90478 2.64681 7.90478 2.66671V7.33338C7.90478 7.53545 7.98505 7.72924 8.12793 7.87213C8.27082 8.01501 8.46461 8.09529 8.66668 8.09529H13.2C13.5284 8.09529 13.8433 8.22573 14.0755 8.45792C14.3077 8.6901 14.4381 9.00502 14.4381 9.33338C14.4381 9.37682 14.4332 9.42011 14.4233 9.46243C14.1586 10.6046 13.593 11.6552 12.7854 12.5051C11.9777 13.355 10.9574 13.9734 9.83015 14.2961C8.70295 14.6187 7.50995 14.6339 6.37489 14.3401C5.23983 14.0463 4.20405 13.4541 3.37498 12.6251C2.54592 11.796 1.95377 10.7602 1.65994 9.62517C1.36612 8.49011 1.38134 7.29711 1.704 6.16991C2.02667 5.04271 2.64504 4.02236 3.49497 3.21471C4.34491 2.40705 5.39545 1.8415 6.53763 1.57671C6.55823 1.57194 6.57907 1.56831 6.60007 1.56585ZM6.74516 2.70202C5.82119 2.92556 4.97178 3.38791 4.28223 4.04317C3.58011 4.71036 3.06928 5.55326 2.80273 6.48442C2.53618 7.41559 2.52361 8.40111 2.76633 9.33877C3.00906 10.2764 3.49823 11.1321 4.18311 11.817C4.86798 12.5018 5.72363 12.991 6.66129 13.2337C7.59895 13.4764 8.58447 13.4639 9.51564 13.1973C10.4468 12.9308 11.2897 12.42 11.9569 11.7178C12.6023 11.0386 13.0606 10.2043 13.2878 9.29646C13.2831 9.2852 13.2762 9.27484 13.2674 9.26604C13.2495 9.24818 13.2253 9.23814 13.2 9.23814H8.66668C8.16151 9.23814 7.67702 9.03746 7.31981 8.68025C6.9626 8.32304 6.76192 7.83856 6.76192 7.33338V2.71601C6.76184 2.71587 6.76177 2.71573 6.76169 2.71559C6.75988 2.71227 6.75742 2.70934 6.75447 2.70698C6.7517 2.70476 6.74854 2.70308 6.74516 2.70202Z" fill="#F30101"/>
<path fill-rule="evenodd" clip-rule="evenodd" d="M9.66977 1.86704C9.82106 1.75991 10.0149 1.73284 10.1898 1.7944C11.1169 2.12085 11.9589 2.6511 12.6539 3.34611C13.349 4.04112 13.8792 4.88318 14.2056 5.81028C14.2672 5.98513 14.2401 6.17899 14.133 6.33028C14.0259 6.48157 13.852 6.57149 13.6667 6.57149H10.6667C10.3383 6.57149 10.0234 6.44105 9.79119 6.20886C9.559 5.97667 9.42856 5.66176 9.42856 5.3334V2.3334C9.42856 2.14802 9.51848 1.97416 9.66977 1.86704ZM10.5714 3.208V5.3334C10.5714 5.35865 10.5814 5.38288 10.5993 5.40074C10.6172 5.4186 10.6414 5.42863 10.6667 5.42863H12.792C12.5415 4.96108 12.223 4.53144 11.8458 4.15423C11.4686 3.77702 11.039 3.45856 10.5714 3.208Z" fill="#F30101"/>
</svg>
