<svg width="16" height="16" viewBox="0 0 16 16" fill="none" xmlns="http://www.w3.org/2000/svg">
<path fill-rule="evenodd" clip-rule="evenodd" d="M2 2.66667C2 2.29848 2.29848 2 2.66667 2H6.66667C7.03486 2 7.33333 2.29848 7.33333 2.66667V6.66667C7.33333 7.03486 7.03486 7.33333 6.66667 7.33333H2.66667C2.29848 7.33333 2 7.03486 2 6.66667V2.66667ZM3.33333 3.33333V6H6V3.33333H3.33333ZM8.66667 2.66667C8.66667 2.29848 8.96514 2 9.33333 2H13.3333C13.7015 2 14 2.29848 14 2.66667V6.66667C14 7.03486 13.7015 7.33333 13.3333 7.33333H9.33333C8.96514 7.33333 8.66667 7.03486 8.66667 6.66667V2.66667ZM10 3.33333V6H12.6667V3.33333H10ZM2 9.33333C2 8.96514 2.29848 8.66667 2.66667 8.66667H6.66667C7.03486 8.66667 7.33333 8.96514 7.33333 9.33333V13.3333C7.33333 13.7015 7.03486 14 6.66667 14H2.66667C2.29848 14 2 13.7015 2 13.3333V9.33333ZM3.33333 10V12.6667H6V10H3.33333ZM11.3333 8.66667C11.7015 8.66667 12 8.96514 12 9.33333V10.6667H13.3333C13.7015 10.6667 14 10.9651 14 11.3333C14 11.7015 13.7015 12 13.3333 12H12V13.3333C12 13.7015 11.7015 14 11.3333 14C10.9651 14 10.6667 13.7015 10.6667 13.3333V12H9.33333C8.96514 12 8.66667 11.7015 8.66667 11.3333C8.66667 10.9651 8.96514 10.6667 9.33333 10.6667H10.6667V9.33333C10.6667 8.96514 10.9651 8.66667 11.3333 8.66667Z" fill="#F30101"/>
</svg>
