<svg width="16" height="16" viewBox="0 0 16 16" fill="none" xmlns="http://www.w3.org/2000/svg">
<path fill-rule="evenodd" clip-rule="evenodd" d="M5.48524 1.92881C6.28252 1.59856 7.13704 1.42859 8.00002 1.42859C8.86299 1.42859 9.71751 1.59856 10.5148 1.92881C11.3121 2.25905 12.0365 2.7431 12.6467 3.35332C13.2569 3.96353 13.741 4.68796 14.0712 5.48524C14.4015 6.28252 14.5714 7.13705 14.5714 8.00002C14.5714 8.86299 14.4015 9.71751 14.0712 10.5148C13.741 11.3121 13.2569 12.0365 12.6467 12.6467C12.0365 13.2569 11.3121 13.741 10.5148 14.0712C9.71751 14.4015 8.86299 14.5714 8.00002 14.5714C7.13704 14.5714 6.28252 14.4015 5.48524 14.0712C4.68796 13.741 3.96353 13.2569 3.35332 12.6467C2.7431 12.0365 2.25905 11.3121 1.92881 10.5148C1.59856 9.71751 1.42859 8.86299 1.42859 8.00002C1.42859 7.13705 1.59856 6.28252 1.92881 5.48524C2.25905 4.68796 2.7431 3.96353 3.35332 3.35332C3.96353 2.7431 4.68796 2.25905 5.48524 1.92881ZM8.00002 2.57145C7.28713 2.57145 6.58122 2.71186 5.92259 2.98467C5.26397 3.25748 4.66553 3.65735 4.16144 4.16144C3.65735 4.66553 3.25748 5.26397 2.98467 5.92259C2.71186 6.58122 2.57145 7.28713 2.57145 8.00002C2.57145 8.71291 2.71186 9.41882 2.98467 10.0774C3.25748 10.7361 3.65735 11.3345 4.16144 11.8386C4.66553 12.3427 5.26397 12.7426 5.92259 13.0154C6.58122 13.2882 7.28713 13.4286 8.00002 13.4286C8.71291 13.4286 9.41882 13.2882 10.0774 13.0154C10.7361 12.7426 11.3345 12.3427 11.8386 11.8386C12.3427 11.3345 12.7426 10.7361 13.0154 10.0774C13.2882 9.41882 13.4286 8.71291 13.4286 8.00002C13.4286 7.28713 13.2882 6.58122 13.0154 5.92259C12.7426 5.26397 12.3427 4.66553 11.8386 4.16144C11.3345 3.65735 10.7361 3.25748 10.0774 2.98467C9.41882 2.71186 8.71291 2.57145 8.00002 2.57145Z" fill="#F30101"/>
<path fill-rule="evenodd" clip-rule="evenodd" d="M8.65792 4.76192C8.99961 4.7523 9.33766 4.8348 9.63658 5.00087C9.93855 5.16863 10.1892 5.41535 10.3617 5.71463C10.5194 5.98804 10.4255 6.33746 10.1521 6.49508C9.87866 6.6527 9.52924 6.55882 9.37163 6.28541C9.30262 6.1657 9.20235 6.06701 9.08156 5.99991C8.96077 5.9328 8.82401 5.89981 8.68591 5.90446C8.6795 5.90467 8.67309 5.90478 8.66668 5.90478H7.33335C7.13128 5.90478 6.93749 5.98505 6.7946 6.12794C6.65172 6.27082 6.57145 6.46462 6.57145 6.66669C6.57145 6.86876 6.65172 7.06255 6.7946 7.20543C6.93749 7.34832 7.13128 7.42859 7.33335 7.42859H8.66668C9.17186 7.42859 9.65634 7.62927 10.0136 7.98648C10.3708 8.3437 10.5714 8.82818 10.5714 9.33335C10.5714 9.83853 10.3708 10.323 10.0136 10.6802C9.65634 11.0374 9.17186 11.2381 8.66668 11.2381H7.34211C7.00042 11.2477 6.66237 11.1652 6.36345 10.9992C6.06148 10.8314 5.81082 10.5847 5.63829 10.2854C5.48068 10.012 5.57455 9.66258 5.84796 9.50496C6.12137 9.34734 6.47079 9.44122 6.62841 9.71463C6.69742 9.83434 6.79768 9.93303 6.91847 10.0001C7.03926 10.0672 7.17602 10.1002 7.31412 10.0956C7.32053 10.0954 7.32694 10.0953 7.33335 10.0953H8.66668C8.86875 10.0953 9.06255 10.015 9.20543 9.8721C9.34832 9.72922 9.42859 9.53542 9.42859 9.33335C9.42859 9.13128 9.34832 8.93749 9.20543 8.79461C9.06255 8.65172 8.86875 8.57145 8.66668 8.57145H7.33335C6.82818 8.57145 6.34369 8.37077 5.98648 8.01356C5.62927 7.65634 5.42859 7.17186 5.42859 6.66669C5.42859 6.16151 5.62927 5.67703 5.98648 5.31982C6.34369 4.9626 6.82818 4.76192 7.33335 4.76192H8.65792Z" fill="#F30101"/>
<path fill-rule="evenodd" clip-rule="evenodd" d="M8.00002 4.09521C8.31561 4.09521 8.57145 4.35105 8.57145 4.66664V11.3333C8.57145 11.6489 8.31561 11.9047 8.00002 11.9047C7.68443 11.9047 7.42859 11.6489 7.42859 11.3333V4.66664C7.42859 4.35105 7.68443 4.09521 8.00002 4.09521Z" fill="#F30101"/>
</svg>
