<svg width="25" height="25" viewBox="0 0 30 30" fill="none" xmlns="http://www.w3.org/2000/svg">
<g clip-path="url(#clip0_218_296)">
<path d="M18.5 5C20.2902 5 22.0071 5.71116 23.273 6.97703C24.5388 8.2429 25.25 9.95979 25.25 11.75C25.25 13.5402 24.5388 15.2571 23.273 16.523C22.0071 17.7888 20.2902 18.5 18.5 18.5C16.7098 18.5 14.9929 17.7888 13.727 16.523C12.4612 15.2571 11.75 13.5402 11.75 11.75C11.75 9.95979 12.4612 8.2429 13.727 6.97703C14.9929 5.71116 16.7098 5 18.5 5ZM18.5 8.375C17.6049 8.375 16.7465 8.73058 16.1135 9.36351C15.4806 9.99645 15.125 10.8549 15.125 11.75C15.125 12.6451 15.4806 13.5035 16.1135 14.1365C16.7465 14.7694 17.6049 15.125 18.5 15.125C19.3951 15.125 20.2535 14.7694 20.8865 14.1365C21.5194 13.5035 21.875 12.6451 21.875 11.75C21.875 10.8549 21.5194 9.99645 20.8865 9.36351C20.2535 8.73058 19.3951 8.375 18.5 8.375ZM18.5 20.1875C23.0056 20.1875 32 22.4319 32 26.9375V32H5V26.9375C5 22.4319 13.9944 20.1875 18.5 20.1875ZM18.5 23.3937C13.4881 23.3937 8.20625 25.8575 8.20625 26.9375V28.7938H28.7938V26.9375C28.7938 25.8575 23.5119 23.3937 18.5 23.3937Z" fill="white"/>
</g>
<defs>
<clipPath id="clip0_218_296">
<rect width="30" height="30" fill="white"/>
</clipPath>
</defs>
</svg>
