<svg width="27" height="27" viewBox="0 0 27 27" fill="none" xmlns="http://www.w3.org/2000/svg">
<path fill-rule="evenodd" clip-rule="evenodd" d="M14.1682 26.1652L14.1547 26.1675L14.0748 26.2069L14.0523 26.2114L14.0366 26.2069L13.9567 26.1664C13.9447 26.1634 13.9357 26.1656 13.9297 26.1731L13.9252 26.1844L13.9061 26.6659L13.9117 26.6884L13.9229 26.703L14.0399 26.7862L14.0568 26.7907L14.0703 26.7862L14.1873 26.703L14.2008 26.685L14.2053 26.6659L14.1862 26.1855C14.1832 26.1735 14.1772 26.1667 14.1682 26.1652ZM14.4652 26.0381L14.4494 26.0404L14.2424 26.145L14.2312 26.1562L14.2278 26.1686L14.2481 26.6524L14.2537 26.6659L14.2627 26.6749L14.4888 26.7784C14.5031 26.7821 14.5139 26.7791 14.5214 26.7694L14.5259 26.7536L14.4877 26.0629C14.4839 26.0486 14.4764 26.0404 14.4652 26.0381ZM13.6608 26.0404C13.6559 26.0374 13.6499 26.0364 13.6443 26.0376C13.6386 26.0389 13.6337 26.0423 13.6304 26.0471L13.6237 26.0629L13.5854 26.7536C13.5862 26.7671 13.5926 26.7761 13.6046 26.7806L13.6214 26.7784L13.8476 26.6737L13.8588 26.6647L13.8622 26.6524L13.8824 26.1686L13.8791 26.1551L13.8678 26.1439L13.6608 26.0404Z" fill="white"/>
<path fill-rule="evenodd" clip-rule="evenodd" d="M6.75 7.875C6.75 6.38316 7.34263 4.95242 8.39752 3.89752C9.45242 2.84263 10.8832 2.25 12.375 2.25C13.8668 2.25 15.2976 2.84263 16.3525 3.89752C17.4074 4.95242 18 6.38316 18 7.875C18 9.36684 17.4074 10.7976 16.3525 11.8525C15.2976 12.9074 13.8668 13.5 12.375 13.5C10.8832 13.5 9.45242 12.9074 8.39752 11.8525C7.34263 10.7976 6.75 9.36684 6.75 7.875ZM12.375 4.5C11.9318 4.5 11.4929 4.5873 11.0834 4.75691C10.674 4.92652 10.3019 5.17512 9.98851 5.48851C9.67512 5.80191 9.42652 6.17397 9.25691 6.58344C9.0873 6.99292 9 7.43179 9 7.875C9 8.31821 9.0873 8.75708 9.25691 9.16656C9.42652 9.57603 9.67512 9.94809 9.98851 10.2615C10.3019 10.5749 10.674 10.8235 11.0834 10.9931C11.4929 11.1627 11.9318 11.25 12.375 11.25C13.2701 11.25 14.1286 10.8944 14.7615 10.2615C15.3944 9.62855 15.75 8.77011 15.75 7.875C15.75 6.97989 15.3944 6.12145 14.7615 5.48851C14.1286 4.85558 13.2701 4.5 12.375 4.5ZM4.96463 19.8011C4.60125 20.2624 4.5 20.6111 4.5 20.8125C4.5 20.9453 4.53937 21.0735 4.73062 21.2445C4.95225 21.4425 5.34938 21.6608 5.97938 21.8554C7.23938 22.2446 9.07987 22.4415 11.2736 22.4887C11.4214 22.4919 11.567 22.524 11.7023 22.5834C11.8376 22.6428 11.9599 22.7283 12.0622 22.835C12.1645 22.9416 12.2447 23.0674 12.2984 23.2051C12.3521 23.3427 12.3781 23.4896 12.375 23.6374C12.3719 23.7851 12.3397 23.9308 12.2803 24.0661C12.2209 24.2014 12.1354 24.3237 12.0288 24.426C11.9221 24.5282 11.7964 24.6085 11.6587 24.6622C11.521 24.7158 11.3741 24.7419 11.2264 24.7387C8.97975 24.6904 6.88387 24.4901 5.31562 24.0052C4.53262 23.7622 3.79237 23.4236 3.23212 22.923C2.64037 22.3942 2.25 21.6832 2.25 20.8125C2.25 19.9271 2.65275 19.0991 3.1995 18.4061C3.75525 17.703 4.52363 17.0561 5.42475 16.5049C7.22813 15.4069 9.68063 14.625 12.375 14.625C12.8783 14.625 13.3717 14.6512 13.8555 14.7037C14.1522 14.7352 14.4243 14.8833 14.6119 15.1154C14.7994 15.3474 14.8871 15.6445 14.8556 15.9413C14.8241 16.238 14.6761 16.51 14.444 16.6976C14.2119 16.8852 13.9149 16.9729 13.6181 16.9414C13.2124 16.8971 12.798 16.875 12.375 16.875C10.0991 16.875 8.05162 17.5387 6.597 18.4264C5.86912 18.8696 5.319 19.3511 4.96463 19.8011ZM23.8646 15.7883C23.6034 15.527 23.2934 15.3198 22.9521 15.1784C22.6108 15.037 22.245 14.9642 21.8756 14.9642C21.5062 14.9642 21.1404 15.037 20.7992 15.1784C20.4579 15.3198 20.1478 15.527 19.8866 15.7883L16.0414 19.6324C15.7832 19.8907 15.6158 20.2259 15.5644 20.5875L15.1931 23.184C15.168 23.3572 15.1837 23.5339 15.2389 23.7C15.2941 23.8661 15.3873 24.017 15.511 24.1407C15.6348 24.2645 15.7857 24.3577 15.9518 24.4129C16.1179 24.468 16.2945 24.4837 16.4677 24.4586L19.0642 24.0874C19.4259 24.0359 19.761 23.8685 20.0194 23.6104L23.8635 19.7651C24.3908 19.2377 24.687 18.5225 24.687 17.7767C24.687 17.0309 24.3919 16.3157 23.8646 15.7883ZM21.4774 17.379C21.5835 17.2765 21.7256 17.2198 21.873 17.2211C22.0205 17.2224 22.1616 17.2816 22.2659 17.3859C22.3702 17.4901 22.4293 17.6312 22.4306 17.7787C22.4319 17.9262 22.3752 18.0683 22.2728 18.1744L18.5602 21.8869L17.6321 22.0196L17.7649 21.0915L21.4774 17.379Z" fill="white"/>
</svg>
