<svg width="23" height="25" viewBox="0 0 23 25" fill="none" xmlns="http://www.w3.org/2000/svg">
<path d="M14.3746 12.4983V23.4413C14.4321 23.8579 14.2884 24.3023 13.9578 24.5939C13.8248 24.7226 13.6669 24.8248 13.493 24.8944C13.3191 24.9641 13.1327 25 12.9445 25C12.7562 25 12.5699 24.9641 12.396 24.8944C12.2221 24.8248 12.0642 24.7226 11.9312 24.5939L9.04222 21.8026C8.88555 21.6545 8.76641 21.4734 8.69411 21.2734C8.62181 21.0735 8.59829 20.8601 8.6254 20.65V12.4983H8.58228L0.303425 2.24969C0.0700193 1.96019 -0.0352981 1.5932 0.0104859 1.2289C0.0562699 0.864607 0.249433 0.532631 0.547767 0.305514C0.820854 0.111096 1.12269 0 1.43889 0H21.5611C21.8773 0 22.1791 0.111096 22.4522 0.305514C22.7506 0.532631 22.9437 0.864607 22.9895 1.2289C23.0353 1.5932 22.93 1.96019 22.6966 2.24969L14.4177 12.4983H14.3746Z" fill="white"/>
</svg>
