<svg width="16" height="16" viewBox="0 0 30 30" fill="none" xmlns="http://www.w3.org/2000/svg">
<path d="M18.6812 1.5625C16.9725 1.5625 15.5937 1.5625 14.51 1.70875C13.385 1.85875 12.4375 2.18375 11.685 2.935C11.03 3.59125 10.6975 4.3975 10.5237 5.345C10.355 6.26625 10.3225 7.3925 10.315 8.745C10.3136 8.99364 10.4111 9.23262 10.586 9.40938C10.7609 9.58613 10.9988 9.68617 11.2475 9.6875C11.4961 9.68883 11.7351 9.59133 11.9118 9.41645C12.0886 9.24157 12.1886 9.00364 12.19 8.755C12.1975 7.38875 12.2325 6.42 12.3675 5.68375C12.4987 4.97625 12.7075 4.565 13.0112 4.26125C13.3575 3.915 13.8437 3.69 14.7612 3.56625C15.705 3.44 16.9562 3.4375 18.75 3.4375H20C21.795 3.4375 23.0462 3.44 23.99 3.56625C24.9075 3.69 25.3925 3.91625 25.74 4.26125C26.085 4.6075 26.31 5.0925 26.4337 6.01125C26.5612 6.95375 26.5625 8.20625 26.5625 10V20C26.5625 21.7938 26.5612 23.045 26.4337 23.99C26.31 24.9075 26.085 25.3925 25.7387 25.7388C25.3925 26.085 24.9075 26.31 23.99 26.4338C23.0462 26.56 21.795 26.5625 20 26.5625H18.75C16.9562 26.5625 15.705 26.56 14.76 26.4338C13.8437 26.31 13.3575 26.0837 13.0112 25.7388C12.7075 25.4338 12.4987 25.0237 12.3675 24.3162C12.2325 23.58 12.1975 22.6112 12.19 21.245C12.1893 21.1219 12.1644 21.0001 12.1167 20.8866C12.069 20.7731 11.9994 20.6701 11.9118 20.5836C11.8243 20.497 11.7206 20.4285 11.6066 20.3819C11.4926 20.3354 11.3706 20.3118 11.2475 20.3125C11.1243 20.3132 11.0026 20.3381 10.8891 20.3858C10.7756 20.4335 10.6726 20.5031 10.586 20.5906C10.4994 20.6781 10.4309 20.7819 10.3844 20.8959C10.3379 21.0098 10.3143 21.1319 10.315 21.255C10.3225 22.6075 10.355 23.7338 10.5237 24.655C10.6987 25.6025 11.03 26.4088 11.6862 27.065C12.4375 27.8175 13.3862 28.14 14.5112 28.2925C15.5937 28.4375 16.9725 28.4375 18.6812 28.4375H20.0687C21.7787 28.4375 23.1562 28.4375 24.24 28.2925C25.365 28.14 26.3125 27.8175 27.065 27.065C27.8175 26.3125 28.14 25.365 28.2925 24.24C28.4375 23.1562 28.4375 21.7775 28.4375 20.0688V9.93125C28.4375 8.2225 28.4375 6.84375 28.2925 5.76C28.1412 4.635 27.8175 3.6875 27.065 2.935C26.3125 2.1825 25.365 1.86 24.24 1.70875C23.1562 1.5625 21.7775 1.5625 20.0687 1.5625H18.6812Z" fill="#F30101"/>
<path d="M18.75 14.0625C18.9986 14.0625 19.2371 14.1612 19.4129 14.3371C19.5887 14.5129 19.6875 14.7513 19.6875 15C19.6875 15.2486 19.5887 15.4871 19.4129 15.6629C19.2371 15.8387 18.9986 15.9375 18.75 15.9375H5.03371L7.48496 18.0375C7.67393 18.1992 7.79089 18.4295 7.81011 18.6775C7.82934 18.9255 7.74925 19.171 7.58746 19.36C7.42568 19.5489 7.19546 19.6659 6.94744 19.6851C6.69943 19.7043 6.45393 19.6242 6.26496 19.4625L1.88996 15.7125C1.78705 15.6245 1.70442 15.5152 1.64776 15.3922C1.5911 15.2692 1.56177 15.1354 1.56177 15C1.56177 14.8645 1.5911 14.7307 1.64776 14.6077C1.70442 14.4847 1.78705 14.3755 1.88996 14.2875L6.26496 10.5375C6.35853 10.4574 6.46696 10.3965 6.58406 10.3583C6.70116 10.3201 6.82464 10.3053 6.94744 10.3148C7.07025 10.3243 7.18998 10.3579 7.29979 10.4137C7.40961 10.4695 7.50736 10.5464 7.58746 10.64C7.66757 10.7335 7.72846 10.842 7.76667 10.9591C7.80487 11.0762 7.81963 11.1996 7.81011 11.3224C7.80059 11.4452 7.76698 11.565 7.71119 11.6748C7.6554 11.7846 7.57853 11.8824 7.48496 11.9625L5.03496 14.0625H18.75Z" fill="#F30101"/>
</svg>
