<svg width="85" height="46" viewBox="0 0 85 46" fill="none" xmlns="http://www.w3.org/2000/svg">
<path d="M0.364014 26.1568H6.73656L10.3042 8.58984H3.93083L0.364014 26.1568Z" fill="#EA1D2C"/>
<path d="M4.49426 5.83162H10.8642L11.8921 0.770996H5.51445L4.49426 5.83162Z" fill="#EA1D2C"/>
<path d="M9.25732 31.1037H15.6299L19.4969 12.0919H24.1471L24.8792 8.59028H20.1895L20.3503 7.77847C20.6504 6.28077 21.137 4.53876 23.54 4.53876C24.9638 4.53876 26.3286 4.69323 27.6523 5.24984L28.3776 1.55008C26.9039 1.03307 25.3504 0.769515 23.7854 0.771002C18.664 0.771002 15.1365 3.82014 13.8452 8.59028H11.632L10.9403 12.0919H13.1209L9.25732 31.1037Z" fill="#EA1D2C"/>
<path d="M29.446 26.5489C36.9713 26.5489 42.1928 19.6749 42.1928 14.0678C42.1928 9.98438 38.3327 8.19873 34.6632 8.19873C26.406 8.19873 21.9131 15.5907 21.9131 20.6807C21.9131 24.7641 25.8125 26.5489 29.446 26.5489Z" fill="#EA1D2C"/>
<path d="M49.5502 26.5489C57.0755 26.5489 62.297 19.6749 62.297 14.0678C62.297 9.98438 58.4292 8.19873 54.7632 8.19873C46.5102 8.19873 42.0104 15.5907 42.0104 20.6807C42.0104 24.7641 45.9141 26.5489 49.5467 26.5489" fill="#EA1D2C"/>
<path d="M72.6582 26.1567H78.9949L84.0838 1.1626H77.7104L76.1917 8.58982C75.3457 8.40673 74.4831 8.308 73.6169 8.29514C67.3743 8.29514 61.697 16.2361 61.697 21.9113C61.697 24.246 63.2148 26.548 65.7914 26.548C69.4531 26.548 71.9878 24.7556 73.0456 23.0758H73.4407L72.6582 26.1567Z" fill="#EA1D2C"/>
<path d="M53.025 39.3966C48.3645 43.365 42.1339 45.4025 35.362 44.9819C26.8233 44.4572 20.9031 37.8461 19.7128 31.14H20.1181C22.0388 35.4215 26.7147 39.3748 32.5828 40.0245C38.3123 40.6567 45.3329 38.0677 49.1854 34.372L44.8635 31.103L57.6976 31.14L54.9355 44.7267L53.025 39.3966Z" fill="#EA1D2C"/>
</svg>
