<svg width="16" height="16" viewBox="0 0 16 16" fill="none" xmlns="http://www.w3.org/2000/svg">
<path fill-rule="evenodd" clip-rule="evenodd" d="M10.9293 1.59583C11.1524 1.37268 11.5142 1.37268 11.7374 1.59583L13.7374 3.59583C13.8446 3.703 13.9048 3.84834 13.9048 3.9999C13.9048 4.15145 13.8446 4.29679 13.7374 4.40396L11.7374 6.40396C11.5142 6.62711 11.1524 6.62711 10.9293 6.40396C10.7061 6.1808 10.7061 5.81899 10.9293 5.59583L11.9538 4.57132H4.66667C4.28779 4.57132 3.92443 4.72183 3.65652 4.98974C3.38861 5.25765 3.2381 5.62101 3.2381 5.99989V7.99989C3.2381 8.31549 2.98227 8.57132 2.66667 8.57132C2.35108 8.57132 2.09525 8.31549 2.09525 7.99989V5.9999C2.09525 5.31791 2.36616 4.66386 2.8484 4.18162C3.33064 3.69938 3.98469 3.42847 4.66667 3.42847H11.9538L10.9293 2.40396C10.7061 2.1808 10.7061 1.81899 10.9293 1.59583Z" fill="#F30101"/>
<path fill-rule="evenodd" clip-rule="evenodd" d="M13.3333 7.42847C13.6489 7.42847 13.9048 7.6843 13.9048 7.9999V9.9999C13.9048 10.6819 13.6339 11.3359 13.1516 11.8182C12.6694 12.3004 12.0153 12.5713 11.3333 12.5713H4.04622L5.07074 13.5958C5.29389 13.819 5.29389 14.1808 5.07074 14.404C4.84758 14.6271 4.48577 14.6271 4.26261 14.404L2.26261 12.404C2.15545 12.2968 2.09525 12.1514 2.09525 11.9999C2.09525 11.8483 2.15545 11.703 2.26261 11.5958L4.26261 9.59583C4.48577 9.37268 4.84758 9.37268 5.07074 9.59583C5.29389 9.81899 5.29389 10.1808 5.07074 10.404L4.04622 11.4285H11.3333C11.7122 11.4285 12.0756 11.278 12.3435 11.01C12.6114 10.7421 12.7619 10.3788 12.7619 9.9999V7.9999C12.7619 7.6843 13.0178 7.42847 13.3333 7.42847Z" fill="#F30101"/>
</svg>
