<svg width="501" height="465" viewBox="0 0 501 465" fill="none" xmlns="http://www.w3.org/2000/svg">
<path d="M389.61 387.923C439.481 385.801 479.675 378.547 479.384 371.72C479.094 364.894 438.43 361.08 388.559 363.201C338.687 365.324 298.495 372.578 298.785 379.404C299.075 386.231 339.74 390.044 389.61 387.923Z" fill="#BB202B" fill-opacity="0.7"/>
<path fill-rule="evenodd" clip-rule="evenodd" d="M419.44 196.289C419.44 196.289 409.245 195.717 409.016 200.872C409.016 200.872 416.576 198.122 419.898 201.1L419.44 196.289Z" fill="#EFA14D"/>
<path d="M441.433 352.881L465.031 366.97C468.697 369.147 467.78 374.76 463.543 375.562C449.338 378.311 425.053 375.905 419.898 365.024C417.034 358.952 420.585 352.079 422.762 352.079L441.433 352.881Z" fill="#C8002D"/>
<path d="M323.79 348.184C323.79 348.184 286.445 371.553 294.579 375.791C305.232 381.29 337.192 372.813 337.192 372.813L338.109 372.698C340.972 372.355 343.492 370.865 345.096 368.574C349.105 362.846 354.375 352.079 339.712 348.986L323.79 348.184Z" fill="#C8002D"/>
<path d="M443.381 354.027C442.236 353.339 441.663 352.079 441.892 350.819L450.025 297.209C450.827 290.794 445.443 293.658 441.663 288.388L424.824 263.302C421.502 258.605 420.013 251.846 415.316 255.168L411.879 257.689L376.942 256.773L323.79 348.184C323.79 348.184 305.919 360.556 314.397 361.358C320.811 362.045 332.954 359.525 339.025 355.86C340.973 354.714 342.691 353.11 344.065 351.277L372.016 312.33C372.818 311.184 373.734 310.153 374.765 309.123L405.35 278.996C406.152 277.735 406.496 272.466 407.412 273.611L420.013 291.137C421.502 293.314 422.189 295.949 421.846 298.583L422.877 352.766C422.877 355.172 424.48 357.348 426.771 358.264C433.416 360.785 447.276 365.71 453.576 365.138C460.335 364.451 448.307 356.89 443.381 354.027Z" fill="#AF709E"/>
<path d="M488.057 204.651L484.047 192.968C483.131 190.332 480.954 188.614 478.663 188.958C477.289 189.187 476.029 190.104 475.341 191.478C474.654 192.853 474.425 194.686 474.768 196.404L476.258 196.06C476.029 194.8 476.143 193.54 476.716 192.509C477.174 191.478 478.09 190.905 478.892 190.79C480.381 190.562 481.871 191.707 482.558 193.654L486.568 205.339C486.682 205.682 487.026 205.912 487.369 205.912C487.484 205.912 487.484 205.912 487.599 205.797C488.057 205.568 488.171 205.11 488.057 204.651Z" fill="#9A1919"/>
<path fill-rule="evenodd" clip-rule="evenodd" d="M473.165 199.955C474.883 196.633 473.623 192.853 473.623 191.936C473.623 190.79 473.165 192.28 472.821 190.79C472.821 189.874 473.852 188.271 474.196 187.354C476.029 182.543 472.821 181.626 471.332 184.834C469.957 187.583 463.428 194.571 462.74 197.664L461.938 201.33C461.48 203.163 460.679 204.881 459.533 206.37L449.796 218.741C446.932 222.407 442.923 225.156 438.456 226.416H414.628L417.264 251.159L449.567 239.017C452.316 237.986 454.607 236.153 456.325 233.748L478.205 203.048L473.165 199.955Z" fill="#AF709E"/>
<path fill-rule="evenodd" clip-rule="evenodd" d="M472.592 190.333C471.103 192.624 469.613 195.717 468.468 198.236C466.635 202.246 469.958 209.234 471.561 209.004C471.561 209.004 478.434 203.048 479.236 200.299C479.007 195.832 472.592 192.738 472.592 190.333Z" fill="#77486F"/>
<path d="M489.087 204.423L485.078 192.738C484.162 190.104 481.985 188.385 479.694 188.729C478.32 188.958 477.059 189.874 476.372 191.249C475.684 192.623 475.456 194.456 475.799 196.175L477.289 195.831C477.059 194.571 477.174 193.311 477.747 192.28C478.205 191.249 479.121 190.676 479.923 190.562C481.412 190.332 482.902 191.478 483.589 193.425L487.599 205.109C487.712 205.453 488.057 205.682 488.4 205.682C488.515 205.682 488.515 205.682 488.629 205.567C489.087 205.339 489.202 204.766 489.087 204.423Z" fill="#C13547"/>
<path d="M476.831 192.051L472.821 203.735C472.707 204.079 472.363 204.308 472.019 204.308C471.905 204.308 471.905 204.308 471.79 204.193C471.447 203.964 471.217 203.506 471.447 203.048L475.456 191.363" fill="#9A1919"/>
<path d="M479.809 190.447C478.32 190.218 476.831 191.363 476.143 193.311L472.134 204.995C472.019 205.339 471.676 205.568 471.332 205.568C471.217 205.568 471.217 205.568 471.103 205.454C470.759 205.224 470.531 204.766 470.759 204.308L474.768 192.624C475.685 189.989 477.862 188.271 480.153 188.614" fill="#C13547"/>
<path fill-rule="evenodd" clip-rule="evenodd" d="M478.663 197.55C479.35 198.008 480.611 200.757 478.434 201.559C476.945 202.017 470.988 201.788 470.988 201.788C470.988 201.788 468.239 201.788 469.041 199.382C469.728 197.435 473.279 197.55 473.279 197.55L477.632 197.663" fill="#AF709E"/>
<path fill-rule="evenodd" clip-rule="evenodd" d="M472.019 197.435C472.019 197.435 478.663 198.123 479.695 196.977C480.381 196.175 480.381 194.686 479.465 194.227C478.09 193.54 473.623 193.426 473.623 193.426H473.738C472.592 193.426 471.446 193.884 470.874 194.571C470.186 195.373 470.186 196.518 472.019 197.435Z" fill="#AF709E"/>
<path fill-rule="evenodd" clip-rule="evenodd" d="M473.852 193.426C473.852 193.426 478.09 194.8 479.35 193.998C480.267 193.426 480.611 191.593 479.923 190.905C478.892 189.874 475.914 189.989 474.425 189.989C473.393 190.104 470.759 192.165 473.852 193.426Z" fill="#AF709E"/>
<path fill-rule="evenodd" clip-rule="evenodd" d="M478.978 197.539C478.984 197.65 478.899 197.744 478.788 197.75C477.693 197.807 475.998 197.807 474.58 197.793C473.871 197.786 473.229 197.775 472.765 197.766C472.533 197.762 472.346 197.758 472.216 197.755L472.066 197.752L472.015 197.75L472.019 197.55L472.024 197.348L472.076 197.35L472.225 197.354C472.354 197.356 472.542 197.36 472.773 197.365C473.236 197.373 473.876 197.384 474.584 197.391C476.002 197.406 477.686 197.406 478.768 197.348C478.878 197.342 478.973 197.428 478.978 197.539ZM471.818 197.544C471.822 197.433 471.913 197.346 472.024 197.348L472.019 197.55L472.015 197.75C471.905 197.747 471.816 197.655 471.818 197.544Z" fill="#89567E"/>
<path fill-rule="evenodd" clip-rule="evenodd" d="M472.969 193.266C472.994 193.157 473.102 193.09 473.21 193.115L473.165 193.311L473.119 193.506C473.011 193.481 472.944 193.374 472.969 193.266ZM473.165 193.311L473.119 193.506L473.122 193.507L473.13 193.509L473.16 193.516C473.185 193.522 473.224 193.53 473.274 193.541C473.374 193.564 473.519 193.595 473.703 193.633C474.067 193.708 474.582 193.809 475.179 193.91C476.371 194.111 477.902 194.314 479.236 194.314C479.347 194.314 479.437 194.224 479.437 194.113C479.437 194.002 479.347 193.912 479.236 193.912C477.935 193.912 476.431 193.713 475.246 193.514C474.655 193.414 474.145 193.315 473.784 193.24C473.603 193.202 473.459 193.172 473.361 193.149C473.312 193.138 473.274 193.13 473.249 193.124L473.22 193.118L473.213 193.116L473.21 193.115L473.165 193.311Z" fill="#89567E"/>
<path fill-rule="evenodd" clip-rule="evenodd" d="M497.794 245.203H463.313C461.938 245.203 460.907 244.172 460.907 242.797L462.97 204.079C462.97 202.704 464.001 201.673 465.375 201.673H495.846C497.22 201.673 498.252 202.704 498.252 204.079L500.313 242.797C500.198 244.057 499.168 245.203 497.794 245.203Z" fill="#EC1D2C"/>
<path fill-rule="evenodd" clip-rule="evenodd" d="M438.341 226.301C424.48 230.311 399.737 226.759 386.449 218.397C377.628 225.271 377.972 238.673 371.787 261.24C369.724 268.571 405.35 269.717 424.595 265.478C427.115 248.754 435.133 237.069 438.341 226.301Z" fill="#AF709E"/>
<path fill-rule="evenodd" clip-rule="evenodd" d="M386.907 169.828C386.907 169.713 387.709 167.881 388.397 166.391C390.229 161.924 388.053 160.32 385.189 165.246L381.752 170.973" fill="#AF709E"/>
<path fill-rule="evenodd" clip-rule="evenodd" d="M378.545 169.828C376.598 170.4 376.14 171.661 376.598 172.806L379.233 181.054C379.576 182.2 380.722 182.314 381.867 181.97L399.508 176.128C400.654 175.785 401.226 174.524 400.768 173.379L398.248 165.703C397.904 164.558 396.644 163.871 395.499 164.215L378.545 169.828Z" fill="#9A1919"/>
<path fill-rule="evenodd" clip-rule="evenodd" d="M376.14 181.398C379.003 179.794 382.325 180.71 383.127 180.71C384.96 180.595 388.397 179.336 389.542 179.107C390.573 178.877 391.719 179.336 391.375 180.252C391.146 181.054 387.365 182.658 384.501 184.032C383.242 184.719 380.951 186.094 380.378 187.355L372.703 205.682C372.015 207.057 372.015 207.057 374.078 209.463L401.914 223.323C403.288 223.667 395.499 242.454 379.118 239.818L357.353 217.825C353.115 213.816 350.365 208.546 356.093 200.986L372.818 175.327L376.14 181.398Z" fill="#AF709E"/>
<path fill-rule="evenodd" clip-rule="evenodd" d="M379.003 180.482C378.316 180.825 375.796 181.512 374.765 182.658C373.276 184.376 368.236 183.574 368.121 182.772L375.681 169.599L379.003 180.482Z" fill="#77486F"/>
<path fill-rule="evenodd" clip-rule="evenodd" d="M379.003 168.339C378.889 167.537 377.628 165.246 375.91 167.422C375.109 168.454 373.276 172.233 373.276 172.233C373.276 172.233 372.36 174.41 374.421 174.639C376.139 174.753 377.4 171.89 377.4 171.89L379.003 168.339Z" fill="#AF709E"/>
<path fill-rule="evenodd" clip-rule="evenodd" d="M377.629 170.973C377.629 170.973 380.149 165.704 381.409 165.475C382.325 165.36 383.471 166.048 383.471 166.849C383.471 168.224 381.409 171.546 381.409 171.546V171.431C380.951 172.233 380.034 172.921 379.233 173.036C378.431 173.264 377.515 172.806 377.629 170.973Z" fill="#AF709E"/>
<path fill-rule="evenodd" clip-rule="evenodd" d="M379.086 168.184C379.171 168.229 379.204 168.335 379.158 168.421C378.705 169.272 378.336 170.152 378.079 170.822C377.951 171.155 377.852 171.436 377.784 171.633C377.75 171.732 377.724 171.81 377.707 171.862L377.688 171.922L377.683 171.937L377.682 171.941L377.681 171.942L377.514 171.89M377.514 171.89L377.347 171.837V171.836L377.348 171.832L377.354 171.816L377.374 171.753C377.391 171.699 377.418 171.619 377.452 171.519C377.52 171.319 377.622 171.035 377.751 170.696C378.01 170.018 378.385 169.124 378.848 168.256C378.894 168.17 379.001 168.138 379.086 168.184" fill="#89567E"/>
<path fill-rule="evenodd" clip-rule="evenodd" d="M447.162 282.088L431.468 268.915C427.344 265.478 425.74 259.98 427.344 254.94L430.094 246.119L427.23 240.506H427.344L424.366 235.122L420.357 226.302H417.951C417.951 226.302 421.731 241.079 413.026 240.163C404.778 239.246 399.852 229.968 400.425 228.478L402.487 223.781L397.905 221.605L391.261 233.518C385.189 241.422 376.598 237.757 376.598 237.757L371.444 261.354L342.806 314.163C340.056 319.318 343.149 325.618 348.876 326.42C385.762 331.919 425.626 325.847 440.059 323.212C443.611 322.525 446.475 319.891 447.276 316.339C449.682 307.29 452.66 290.107 447.162 282.088Z" fill="#C8002D"/>
<path fill-rule="evenodd" clip-rule="evenodd" d="M419.097 200.872C417.492 199.612 417.149 197.206 418.524 195.602C418.524 195.602 430.093 179.68 433.988 182.085C436.851 184.376 434.56 187.469 433.301 189.072L424.48 200.299C423.106 201.903 420.7 202.246 419.097 200.872Z" fill="#EFA14D"/>
<path fill-rule="evenodd" clip-rule="evenodd" d="M418.18 199.611C417.264 197.778 418.066 195.487 419.898 194.571L431.697 188.729C435.935 186.896 439.029 190.104 433.644 193.769L423.221 201.33C421.273 202.246 419.097 201.444 418.18 199.611Z" fill="#EFA14D"/>
<path fill-rule="evenodd" clip-rule="evenodd" d="M406.839 213.93L401.799 225.5C401.456 226.187 400.997 228.249 401.684 228.478C405.465 229.853 417.149 234.778 418.065 232.831L418.18 214.846" fill="#AF709E"/>
<path fill-rule="evenodd" clip-rule="evenodd" d="M411.651 219.085C418.867 218.97 424.595 210.15 424.48 204.881C424.48 201.1 420.7 200.184 417.264 199.497C407.985 197.55 401.799 207.859 401.799 212.67C401.914 216.336 408.214 219.085 411.651 219.085Z" fill="#AF709E"/>
<path fill-rule="evenodd" clip-rule="evenodd" d="M422.991 213.93C425.396 213.93 427.114 211.639 427.114 209.806C427.114 208.546 425.855 207.973 424.595 207.973C421.96 207.973 420.471 210.379 420.471 212.097C420.471 213.472 421.731 214.045 422.991 213.93Z" fill="#AF709E"/>
<path fill-rule="evenodd" clip-rule="evenodd" d="M418.065 202.017C416.118 201.33 413.484 198.924 414.17 196.977L420.471 176.128C421.158 174.181 423.793 170.858 427.115 172.233C431.926 174.295 430.666 176.472 429.979 178.534L424.365 200.299C422.304 202.475 418.065 202.017 418.065 202.017Z" fill="#EFA14D"/>
<path fill-rule="evenodd" clip-rule="evenodd" d="M405.694 217.252C407.183 218.512 409.932 218.168 413.369 218.283C413.712 218.283 413.827 218.856 413.484 218.97L404.548 221.261C404.32 221.376 404.09 221.032 404.205 220.803L405.465 217.481C405.35 217.367 405.579 217.252 405.694 217.252Z" fill="#77486F"/>
<path fill-rule="evenodd" clip-rule="evenodd" d="M417.722 201.1C417.722 201.1 424.251 203.048 421.96 209.119C421.96 209.119 422.533 208.088 424.71 208.088C424.71 208.088 427.001 203.276 423.106 199.611L417.722 201.1Z" fill="#EFA14D"/>
<path fill-rule="evenodd" clip-rule="evenodd" d="M408.379 203.694C408.465 203.406 408.768 203.241 409.057 203.327L413.295 204.587C413.32 204.595 413.344 204.603 413.368 204.615L422.074 208.624C422.347 208.75 422.467 209.073 422.341 209.347C422.215 209.62 421.891 209.74 421.618 209.614L412.947 205.621L408.746 204.372C408.457 204.287 408.293 203.983 408.379 203.694Z" fill="#9A1919"/>
<path fill-rule="evenodd" clip-rule="evenodd" d="M404.32 206.484C407.641 206.484 409.818 203.506 409.818 200.986C409.818 199.268 408.099 198.466 406.496 198.466C402.945 198.466 400.997 201.788 400.997 203.964C400.997 205.797 402.715 206.484 404.32 206.484Z" fill="#9A1919"/>
<path fill-rule="evenodd" clip-rule="evenodd" d="M411.078 209.577C414.629 209.577 416.92 206.37 416.92 203.849C416.92 202.017 415.087 201.215 413.369 201.215C409.588 201.215 407.527 204.651 407.527 206.942C407.641 208.775 409.474 209.577 411.078 209.577Z" fill="#9A1919"/>
<path fill-rule="evenodd" clip-rule="evenodd" d="M409.818 211.41C409.818 211.41 407.985 209.463 406.266 208.431C403.862 206.943 403.517 209.921 403.517 209.921C403.517 209.921 403.517 209.921 403.632 209.921C403.862 210.609 405.465 214.847 409.589 211.525C409.703 211.525 409.818 211.41 409.818 211.41Z" fill="#C8002D"/>
<path fill-rule="evenodd" clip-rule="evenodd" d="M475.684 221.834C478.778 221.834 480.954 218.97 480.839 216.679C480.839 215.076 479.236 214.273 477.632 214.388C474.196 214.388 472.363 217.481 472.477 219.543C472.592 221.147 474.196 221.834 475.684 221.834ZM489.316 216.564C489.316 218.856 487.254 221.719 484.161 221.719C482.672 221.719 481.069 221.032 480.954 219.428C480.954 217.367 482.787 214.273 486.109 214.273C487.712 214.159 489.316 214.846 489.316 216.564ZM478.205 229.28C480.954 229.395 483.474 228.592 485.307 226.874L486.109 229.051L487.14 223.552L481.985 223.667L483.818 224.926C482.329 226.416 479.465 227.562 477.059 227.332C474.654 227.104 472.706 225.614 471.905 223.896H471.79C472.248 226.531 474.654 229.165 478.205 229.28Z" fill="white"/>
<path opacity="0.42" fill-rule="evenodd" clip-rule="evenodd" d="M364.914 326.764V288.274C364.914 287.816 365.142 287.358 365.487 287.128L388.397 272.123C388.74 271.893 388.97 271.435 388.97 270.977V245.203C388.97 244.86 389.084 244.515 389.313 244.287L400.539 233.175C401.112 232.602 402.029 232.717 402.601 233.29C403.288 234.32 404.548 235.809 406.152 237.069C406.611 237.414 406.839 237.986 406.611 238.444C405.808 241.537 400.997 246.348 399.393 248.067C399.05 248.41 398.935 248.983 399.05 249.441L406.152 272.236C406.381 272.809 406.152 273.382 405.579 273.726L382.898 288.618C382.555 288.847 382.325 289.305 382.325 289.764V328.024C382.325 328.825 381.638 329.398 380.836 329.398L366.059 328.138C365.487 328.138 364.914 327.451 364.914 326.764Z" fill="#E6C7CB"/>
<path d="M85.523 399.273C132.276 399.273 170.177 392.248 170.177 383.58C170.177 374.913 132.276 367.886 85.523 367.886C38.7701 367.886 0.869507 374.913 0.869507 383.58C0.869507 392.248 38.7701 399.273 85.523 399.273Z" fill="#BB202B" fill-opacity="0.7"/>
<path fill-rule="evenodd" clip-rule="evenodd" d="M130.427 329.283C118.628 367.2 76.5879 382.778 48.7519 374.187C28.5909 367.887 25.8416 345.778 31.5693 327.221C44.5135 285.868 88.1578 274.527 113.245 282.317C133.29 288.503 136.154 310.955 130.427 329.283Z" fill="#F8EDED"/>
<path fill-rule="evenodd" clip-rule="evenodd" d="M69.4374 289.87C54.6538 296.505 41.3654 308.883 35.2633 328.369C32.557 337.142 31.9421 346.51 34.1691 354.228C36.3469 361.775 41.2164 367.777 49.8992 370.492C62.7377 374.453 79.1872 372.895 93.9042 365.7C108.555 358.537 121.195 345.932 126.733 328.134L126.735 328.13C129.433 319.494 130.029 310.094 127.784 302.32C125.585 294.704 120.702 288.666 112.104 286.013L112.097 286.011C100.546 282.425 84.3347 283.184 69.4374 289.87ZM114.388 278.621C100.853 274.42 82.7005 275.437 66.2695 282.811C49.7251 290.237 34.7207 304.204 27.8775 326.065L27.8729 326.08C24.8536 335.863 23.9803 346.824 26.7356 356.373C29.5403 366.093 36.124 374.294 47.5981 377.879L47.6111 377.884C62.6077 382.512 81.0933 380.575 97.3023 372.651C113.579 364.693 127.858 350.552 134.119 330.437C137.148 320.744 137.985 309.754 135.218 300.173C132.405 290.435 125.834 282.155 114.388 278.621Z" fill="#9A1919"/>
<path fill-rule="evenodd" clip-rule="evenodd" d="M94.6868 249.785C94.6868 249.785 61.1236 259.75 62.1545 280.713C62.1545 280.713 59.1762 318.287 100.644 291.595L94.6868 249.785Z" fill="#77486F"/>
<path fill-rule="evenodd" clip-rule="evenodd" d="M166.608 238.381C167.719 240.206 167.139 242.586 165.314 243.696L148.142 254.144L147.812 304.68C147.799 306.816 146.055 308.537 143.919 308.523C141.782 308.51 140.062 306.766 140.076 304.63L140.419 251.936C140.428 250.595 141.131 249.353 142.277 248.656L161.292 237.087C163.118 235.976 165.498 236.556 166.608 238.381Z" fill="#9A1919"/>
<path fill-rule="evenodd" clip-rule="evenodd" d="M142.918 232.911C143.759 234.875 142.849 237.149 140.886 237.99L122.365 245.928L122.038 296.088C122.024 298.225 120.281 299.945 118.145 299.932C116.008 299.918 114.288 298.174 114.302 296.038L114.645 243.345C114.656 241.806 115.576 240.42 116.99 239.814L137.838 230.879C139.802 230.038 142.076 230.947 142.918 232.911Z" fill="#9A1919"/>
<path fill-rule="evenodd" clip-rule="evenodd" d="M107.402 301.677L69.7147 307.518C64.3307 308.32 59.9778 312.445 58.8323 317.828L48.8663 366.169" fill="#AF709E"/>
<path d="M62.6127 369.032L35.2349 363.419L45.2008 315.079C47.4919 304.082 56.4269 295.491 67.6529 293.773L105.341 287.93L109.579 315.537L72.4641 321.264L62.6127 369.032Z" fill="#7F5376"/>
<path fill-rule="evenodd" clip-rule="evenodd" d="M66.7365 292.283C66.7365 292.283 73.9532 297.782 76.7024 322.983L117.254 298.24L113.473 285.524L66.7365 292.283Z" fill="#720D2E"/>
<path d="M35.2349 363.419L61.5817 365.71C61.5817 365.71 64.9037 372.468 65.591 378.884C66.0492 383.58 62.269 387.475 57.5724 387.475C45.7736 387.36 19.7705 387.245 11.5228 382.55C9.5754 381.519 19.885 374.989 22.1761 373.385C24.3525 371.896 35.2349 363.419 35.2349 363.419Z" fill="#E2BFBF"/>
<path d="M79.3372 369.376L45.0863 363.763L58.8325 317.714C61.1235 306.716 72.6932 303.165 83.8047 301.447L121.492 295.604L125.731 323.212L88.6158 328.939L79.3372 369.376Z" fill="#AF709E"/>
<path d="M45.0863 363.878L79.3371 369.491C79.3371 369.491 82.6591 376.249 83.3465 382.664C83.8047 387.36 80.0245 391.256 75.3279 391.256C63.9873 391.141 40.3897 390.454 30.5383 386.788C28.1327 385.871 23.6652 383.695 31.3402 376.707C45.0863 363.878 45.0863 363.878 45.0863 363.878Z" fill="#F8EDED"/>
<path fill-rule="evenodd" clip-rule="evenodd" d="M79.9099 300.073C79.9099 300.073 91.0217 307.06 93.7707 332.261L134.322 307.518L130.541 294.803L79.9099 300.073Z" fill="#720D2E"/>
<path fill-rule="evenodd" clip-rule="evenodd" d="M125.501 304.425C113.245 285.754 82.8881 292.398 84.721 271.663C85.7519 259.865 91.7082 248.524 102.247 245.775C119.659 241.308 133.062 241.995 141.195 261.468C145.777 272.122 139.705 326.076 125.501 304.425Z" fill="#C8002D"/>
<path fill-rule="evenodd" clip-rule="evenodd" d="M77.7336 302.364L69.8294 303.165C65.9347 303.623 62.3836 300.76 61.9254 296.75L59.5198 273.382C59.0616 269.487 61.9254 265.937 65.9348 265.478L73.8388 264.677C77.7336 264.218 81.2846 267.082 81.7428 271.091L84.1484 294.46C84.6066 298.355 81.7428 301.905 77.7336 302.364Z" fill="#9A1919"/>
<path fill-rule="evenodd" clip-rule="evenodd" d="M72.5786 302.937L64.6745 303.738C60.7798 304.196 57.2287 301.332 56.7705 297.323L54.3649 273.955C53.9067 270.06 56.7705 266.509 60.7798 266.051L68.6838 265.249C72.5786 264.791 76.1297 267.654 76.5879 271.664L78.9935 295.032C79.4516 298.928 76.5879 302.478 72.5786 302.937Z" fill="#EFA14D"/>
<path d="M137.644 307.633C136.498 307.747 135.353 307.747 134.322 307.518C134.322 307.518 106.715 301.677 98.9256 296.75C89.8761 290.909 89.7614 289.419 90.9069 283.348C92.1672 277.391 89.6467 278.537 95.6037 279.797L116.337 283.119C120.118 283.691 123.095 279.797 121.607 276.246L115.421 262.385C114.733 256.314 117.368 251.618 123.44 250.93C129.511 250.243 136.498 251.618 141.195 261.468C141.195 261.468 148.297 287.357 140.164 295.834C137.759 298.355 146.464 302.593 143.944 304.884C142.226 306.487 140.05 307.404 137.644 307.633Z" fill="#AF709E"/>
<path d="M103.393 288.045C106.142 294.459 107.632 295.376 103.508 298.469C100.759 300.531 90.4488 287.013 79.1079 291.71C74.9841 293.773 75.0986 291.596 76.9315 288.732C72.4639 290.794 73.0367 288.618 75.5568 285.525C71.4329 286.327 70.4021 284.952 72.4639 283.234C73.4949 282.318 80.2535 277.85 81.9717 276.818C82.7735 276.36 81.8571 274.872 82.3153 273.382C82.3153 273.268 82.4299 273.268 82.5444 273.268C87.2408 274.986 95.6037 279.568 95.6037 279.568C99.3835 283.348 102.935 286.9 103.393 288.045Z" fill="#AF709E"/>
<path fill-rule="evenodd" clip-rule="evenodd" d="M84.8108 284.417C84.8534 284.656 84.6938 284.884 84.4544 284.927C81.9588 285.371 80.1621 286.395 78.9914 287.305C78.4057 287.759 77.9767 288.185 77.6963 288.495C77.556 288.649 77.4531 288.775 77.3863 288.859C77.3529 288.902 77.3287 288.935 77.3133 288.955L77.297 288.978L77.294 288.982L77.2938 288.983C77.1557 289.182 76.8816 289.233 76.6816 289.095C76.4814 288.957 76.4311 288.682 76.5691 288.482L76.9316 288.732C76.5691 288.482 76.569 288.482 76.5691 288.482L76.5704 288.48L76.5726 288.478L76.5795 288.467C76.5852 288.46 76.5933 288.448 76.6036 288.434C76.6244 288.406 76.6543 288.366 76.6937 288.316C76.7724 288.216 76.8888 288.074 77.0439 287.903C77.354 287.561 77.8201 287.099 78.4514 286.609C79.7149 285.627 81.6411 284.533 84.3003 284.061C84.5397 284.018 84.7683 284.177 84.8108 284.417Z" fill="#77486F"/>
<path fill-rule="evenodd" clip-rule="evenodd" d="M83.1954 281.045C83.2652 281.278 83.1331 281.524 82.9002 281.593C80.6748 282.261 78.8896 283.376 77.6589 284.327C77.0444 284.801 76.5704 285.233 76.2514 285.546C76.092 285.702 75.9715 285.828 75.8917 285.913C75.8518 285.956 75.8221 285.989 75.8029 286.01L75.7819 286.034L75.7773 286.039C75.7772 286.04 75.7766 286.04 75.7765 286.04C75.7766 286.04 75.7767 286.04 75.4424 285.754L75.1081 285.467C74.9498 285.652 74.9712 285.929 75.1558 286.088C75.3404 286.246 75.6182 286.225 75.7765 286.04M75.4424 285.754C75.1081 285.467 75.1079 285.467 75.1081 285.467L75.1092 285.465L75.1115 285.463L75.1189 285.454L75.1458 285.424C75.1691 285.398 75.2029 285.361 75.2472 285.313C75.3356 285.218 75.4657 285.083 75.6357 284.917C75.9754 284.584 76.475 284.128 77.1206 283.63C78.4099 282.633 80.2905 281.457 82.6472 280.75C82.88 280.68 83.1255 280.812 83.1954 281.045" fill="#77486F"/>
<path d="M123.554 240.506C134.119 240.506 142.684 231.941 142.684 221.376C142.684 210.81 134.119 202.246 123.554 202.246C112.989 202.246 104.424 210.81 104.424 221.376C104.424 231.941 112.989 240.506 123.554 240.506Z" fill="#C29B9B"/>
<path fill-rule="evenodd" clip-rule="evenodd" d="M124.242 222.522C123.096 222.064 122.752 223.781 121.148 224.24C121.034 221.376 119.773 218.741 116.796 217.367C110.381 214.618 98.5822 216.336 94.114 226.874C92.0524 231.571 92.1671 237.413 97.3219 239.704C103.622 242.454 113.473 240.391 118.514 233.06C121.148 233.977 131.916 225.385 124.242 222.522Z" fill="#AF709E"/>
<path fill-rule="evenodd" clip-rule="evenodd" d="M118.628 224.927C119.545 225.156 123.783 223.323 124.241 222.522C126.876 217.825 125.845 210.952 120.118 209.577C107.86 206.484 104.653 208.317 97.3219 215.763C93.6559 216.45 91.4796 216.107 84.8356 216.565C79.337 216.909 83.8046 219.428 84.6065 219.658C92.6251 221.261 112.328 223.667 118.628 224.927Z" fill="#C8002D"/>
<path fill-rule="evenodd" clip-rule="evenodd" d="M112.672 223.782C112.672 223.782 121.263 224.24 126.991 220.689C128.022 221.491 127.449 225.729 127.449 225.729C127.449 225.729 124.814 221.72 119.545 228.135C119.545 228.135 117.139 230.196 112.672 223.782Z" fill="#C29B9B"/>
<path fill-rule="evenodd" clip-rule="evenodd" d="M103.851 238.902L100.3 249.441C99.727 251.159 101.102 252.877 102.935 252.649C106.715 252.191 112.672 250.93 117.941 246.806L120.232 231.457L103.851 238.902Z" fill="#AF709E"/>
<path fill-rule="evenodd" clip-rule="evenodd" d="M114.733 236.955C114.733 236.955 106.486 240.391 103.278 240.506L101.102 246.806L114.733 236.955Z" fill="#77486F"/>
<path fill-rule="evenodd" clip-rule="evenodd" d="M174.759 346.008C162.959 383.924 120.919 399.503 93.0832 390.912C72.9222 384.611 70.173 362.503 75.9005 343.946C88.8444 302.592 132.489 291.252 157.576 299.041C177.622 305.228 180.486 327.679 174.759 346.008Z" fill="#F8EDED"/>
<path fill-rule="evenodd" clip-rule="evenodd" d="M113.769 306.594C98.9855 313.23 85.6969 325.608 79.5948 345.094C76.8885 353.867 76.2736 363.235 78.5006 370.953C80.6784 378.5 85.5479 384.502 94.2305 387.218C107.069 391.178 123.518 389.62 138.236 382.425C152.887 375.262 165.526 362.657 171.064 344.858L171.066 344.854C173.765 336.218 174.361 326.818 172.116 319.045C169.916 311.429 165.034 305.392 156.435 302.738L156.429 302.737C144.878 299.149 128.666 299.909 113.769 306.594ZM158.72 295.346C145.184 291.144 127.032 292.162 110.601 299.536C94.0567 306.962 79.0521 320.928 72.209 342.791L72.2043 342.805C69.1851 352.587 68.3117 363.55 71.067 373.098C73.8717 382.817 80.4554 391.019 91.9292 394.605L91.9429 394.609C106.939 399.237 125.425 397.301 141.634 389.376C157.911 381.418 172.19 367.277 178.451 347.162C181.479 337.47 182.316 326.478 179.549 316.898C176.737 307.16 170.165 298.88 158.72 295.346Z" fill="#9A1919"/>
<path fill-rule="evenodd" clip-rule="evenodd" d="M135.468 345.092C133.062 352.881 124.47 356.088 118.743 354.255C114.619 352.996 114.046 348.413 115.191 344.633C117.827 336.156 126.761 333.865 131.916 335.469C136.04 336.843 136.613 341.426 135.468 345.092Z" fill="#C8002D"/>
<path d="M98.845 231.654C99.2842 230.603 99.262 229.593 98.7954 229.398C98.3288 229.202 97.5933 229.896 97.1541 230.946C96.7149 231.997 96.7372 233.006 97.2038 233.202C97.6712 233.398 98.4058 232.704 98.845 231.654Z" fill="#78252B"/>
<path d="M102.984 231.997C103.472 230.83 103.442 229.706 102.917 229.486C102.391 229.266 101.57 230.034 101.081 231.202C100.593 232.369 100.623 233.493 101.149 233.713C101.674 233.933 102.496 233.165 102.984 231.997Z" fill="#78252B"/>
<path fill-rule="evenodd" clip-rule="evenodd" d="M99.4255 236.955C99.4255 236.599 99.7149 236.31 100.071 236.31H101.445C101.801 236.31 102.09 236.599 102.09 236.955C102.09 237.311 101.801 237.599 101.445 237.599H100.071C99.7149 237.599 99.4255 237.311 99.4255 236.955Z" fill="#78252B"/>
<path d="M228.942 464.11C316.31 464.11 387.137 456.058 387.137 446.125C387.137 436.193 316.31 428.141 228.942 428.141C141.572 428.141 70.7457 436.193 70.7457 446.125C70.7457 456.058 141.572 464.11 228.942 464.11Z" fill="#BB202B" fill-opacity="0.7"/>
<path d="M308.096 412.104C308.096 412.104 354.261 423.787 356.437 437.534C358.27 449.218 304.317 451.624 279.458 449.218C270.524 448.301 263.192 441.085 262.276 432.15C261.589 424.59 267.775 415.425 270.752 414.051L308.096 412.104Z" fill="#AF709E"/>
<path d="M201.564 400.191C201.564 400.191 239.365 429.172 235.929 442.689C233.065 454.144 182.433 435.128 160.554 423.101C152.65 418.747 148.87 409.24 151.505 400.649C153.796 393.432 163.074 387.475 166.396 387.36L201.564 400.191Z" fill="#AF709E"/>
<path fill-rule="evenodd" clip-rule="evenodd" d="M202.365 400.648C197.898 401.909 192.743 415.998 192.743 415.998C188.161 414.738 158.951 404.428 158.951 404.428L151.505 400.534C148.756 409.125 144.517 414.165 152.421 418.519C174.301 430.547 232.836 454.029 235.7 442.46C238.793 430.203 208.207 405.231 202.365 400.648Z" fill="#C8002D"/>
<path fill-rule="evenodd" clip-rule="evenodd" d="M309.013 412.333C305.347 415.311 306.264 430.202 306.264 430.202C301.567 430.775 270.638 432.837 270.638 432.837L262.161 432.15C263.078 441.085 261.13 447.385 270.18 448.301C295.038 450.707 358.041 449.218 356.208 437.419C354.146 424.933 316.23 414.165 309.013 412.333Z" fill="#C8002D"/>
<path d="M165.022 378.769L199.043 331.918C200.761 329.055 201.334 325.733 200.761 322.525L191.369 268.457L234.669 260.896L247.728 336.042L206.719 404.315C198.242 404.2 177.622 393.891 167.083 388.278C163.647 386.445 162.616 381.977 165.022 378.769Z" fill="#9A1919"/>
<path d="M259.526 404.085L249.904 343.487C248.988 339.364 247.384 335.468 244.979 332.032L190.911 264.676L245.093 254.71L286.217 323.212C287.935 326.19 289.31 329.283 290.111 332.719L308.898 412.219L270.638 414.165C265.139 414.28 260.443 409.583 259.526 404.085Z" fill="#C8002D"/>
<path fill-rule="evenodd" clip-rule="evenodd" d="M279.416 181.333L280.392 170.449C280.392 170.449 280.011 166.759 277.687 169.975C275.363 173.191 268.909 182.589 267.23 187.273L270.193 194.735L279.416 181.333Z" fill="#DCA1A7"/>
<path fill-rule="evenodd" clip-rule="evenodd" d="M273.459 194.154C273.459 194.154 277.624 180.723 273.865 172.794C270.107 164.735 273.154 173.049 266.652 187.247C266.55 187.119 273.256 192.107 273.459 194.154Z" fill="#DCA1A7"/>
<path fill-rule="evenodd" clip-rule="evenodd" d="M278.449 187.111L285.868 179.053C285.868 179.053 287.786 175.983 283.949 177.006C280.112 178.157 269.24 181.611 265.146 184.297L262.972 191.971L278.449 187.111Z" fill="#DCA1A7"/>
<path fill-rule="evenodd" clip-rule="evenodd" d="M265.951 199.957C265.951 199.957 270.116 186.527 266.358 178.596C262.599 170.538 265.646 178.852 259.145 193.05C259.145 193.05 265.85 198.038 265.951 199.957Z" fill="#DCA1A7"/>
<path fill-rule="evenodd" clip-rule="evenodd" d="M258.435 194.303C258.435 194.303 272.447 185.061 283.225 186.955C293.907 188.933 283.063 187.923 269.063 200.243C268.968 200.329 260.776 193.856 258.435 194.303Z" fill="#DCA1A7"/>
<path d="M236.47 202.035C228.257 210.887 228.102 222.771 236.125 228.579C244.147 234.387 257.309 231.919 265.522 223.066C273.735 214.215 273.89 202.331 265.868 196.522C257.845 190.714 244.683 193.183 236.47 202.035Z" fill="#EFA14D"/>
<path d="M211.988 182.543C225.78 182.543 236.96 171.363 236.96 157.571C236.96 143.78 225.78 132.599 211.988 132.599C198.197 132.599 187.016 143.78 187.016 157.571C187.016 171.363 198.197 182.543 211.988 182.543Z" fill="#C29B9B"/>
<path d="M230.822 176.608C234.624 163.35 224.641 148.855 208.525 144.233C192.409 139.611 176.261 146.612 172.459 159.87C168.656 173.127 178.639 187.623 194.756 192.245C210.872 196.866 227.019 189.866 230.822 176.608Z" fill="#C29B9B"/>
<path fill-rule="evenodd" clip-rule="evenodd" d="M225.505 192.853C214.164 189.416 210.498 180.71 213.019 172.348C220.35 171.088 217.257 162.726 222.984 163.642C239.136 166.277 241.656 180.138 239.48 187.583C237.647 193.541 231.003 194.571 225.505 192.853Z" fill="#AF709E"/>
<path fill-rule="evenodd" clip-rule="evenodd" d="M212.217 171.203C216.456 172.463 217.83 175.785 216.914 178.877C214.165 179.336 215.31 182.543 213.134 182.2C207.062 181.168 206.146 176.013 206.947 173.15C207.749 170.973 210.155 170.63 212.217 171.203Z" fill="#AF709E"/>
<path fill-rule="evenodd" clip-rule="evenodd" d="M227.109 189.874L223.901 210.837C223.443 213.815 220.35 215.648 217.486 214.731L201.564 209.233L212.79 181.397L227.109 189.874Z" fill="#AF709E"/>
<path fill-rule="evenodd" clip-rule="evenodd" d="M217.601 283.348C189.65 274.872 174.186 243.599 180.372 223.095C184.839 208.317 204.542 199.153 218.174 203.277C248.644 212.555 257.579 252.076 251.966 270.518C247.613 285.067 231.118 287.358 217.601 283.348Z" fill="#C8002D"/>
<path d="M282.551 275.215L231.461 276.933C227.567 276.933 219.777 273.841 219.891 270.06L230.316 218.054C230.43 214.388 223.787 209.806 227.452 209.806L273.959 208.203C275.678 208.203 277.167 209.463 277.396 211.181L282.895 262.958L285.186 272.351C285.415 273.841 284.155 275.215 282.551 275.215Z" fill="#EC1D2C"/>
<path d="M231.461 276.933L214.737 280.141C213.592 280.141 215.997 274.642 216.226 270.06C216.913 258.834 217.257 229.051 217.257 215.419C217.257 211.983 220.121 209.234 223.557 209.463L230.316 209.806C231.233 209.806 231.919 210.494 232.034 211.295C232.034 211.295 231.691 231.113 232.492 264.677C232.607 267.769 233.982 270.977 234.096 274.299C234.21 275.673 233.065 276.933 231.461 276.933Z" fill="#9A1919"/>
<path fill-rule="evenodd" clip-rule="evenodd" d="M252.195 242.797C256.205 242.682 258.954 239.017 258.839 236.038C258.724 233.862 256.663 232.945 254.715 233.06C250.248 233.175 247.957 237.184 248.071 239.818C248.071 241.881 250.248 242.797 252.195 242.797ZM269.836 235.695C269.951 238.673 267.202 242.339 263.193 242.454C261.245 242.454 259.068 241.651 259.068 239.475C258.954 236.841 261.36 232.831 265.712 232.717C267.66 232.602 269.722 233.518 269.836 235.695ZM255.402 252.419C258.954 252.534 262.276 251.388 264.681 249.212L265.712 251.961L266.972 244.858L260.214 244.973L262.505 246.577C260.557 248.524 256.892 250.013 253.799 249.785C250.707 249.555 248.186 247.494 247.04 245.317H246.811C247.728 248.868 250.935 252.19 255.402 252.419Z" fill="white"/>
<path fill-rule="evenodd" clip-rule="evenodd" d="M256.434 270.977C257.693 274.299 247.843 276.36 245.895 276.933C246.124 277.162 253.914 275.559 254.028 275.673C256.09 276.36 246.697 287.586 234.325 287.128C233.867 287.128 225.505 286.785 225.505 286.785L214.737 276.704C214.737 276.704 228.827 269.831 229.858 269.372C237.533 265.592 242 265.134 244.291 265.363C246.124 265.592 244.749 268.113 243.489 268.8C238.793 271.435 239.824 271.778 240.167 272.008C244.177 272.695 255.174 267.654 256.434 270.977Z" fill="#AF709E"/>
<path d="M175.904 232.144C176.019 232.029 176.019 231.8 176.134 231.686C185.526 206.599 202.938 214.503 202.938 214.503C210.728 217.482 209.124 237.299 204.083 243.943L196.524 255.741C195.836 256.773 195.951 258.147 196.638 259.178C199.96 263.875 211.529 273.382 224.245 271.206C226.078 270.862 227.681 272.351 227.681 274.184C227.681 277.621 226.765 282.088 226.078 284.723C225.734 285.869 224.817 286.785 223.557 287.015C214.508 288.274 191.483 290.909 176.019 281.86C154.597 269.374 174.186 235.123 175.904 232.144Z" fill="#AF709E"/>
<path fill-rule="evenodd" clip-rule="evenodd" d="M220.693 190.677C222.641 191.822 225.161 192.853 227.223 192.738L225.505 200.757L219.663 191.707C219.09 191.135 219.892 190.333 220.693 190.677Z" fill="#77486F"/>
<path fill-rule="evenodd" clip-rule="evenodd" d="M280.375 278.079C280.604 279.339 279.802 283.806 275.907 281.172C274.074 279.912 269.149 274.757 269.149 274.757C269.149 274.757 266.514 271.664 269.836 270.289C272.585 269.144 276.137 273.153 276.137 273.153L280.375 278.079Z" fill="#AF709E"/>
<path fill-rule="evenodd" clip-rule="evenodd" d="M274.762 272.351C274.762 272.351 281.635 279.568 283.926 279.224C285.529 278.995 287.019 277.277 286.446 275.902C285.644 273.84 280.604 269.372 280.604 269.372L280.719 269.487C279.573 268.341 277.625 267.769 276.366 267.998C274.876 268.227 273.731 269.602 274.876 272.58" fill="#AF709E"/>
<path fill-rule="evenodd" clip-rule="evenodd" d="M279.229 268.801C279.229 268.801 286.102 276.017 288.393 275.673C289.998 275.444 291.486 273.726 290.914 272.351C290.111 270.289 285.071 265.822 285.071 265.822L285.186 265.937C284.04 264.791 282.093 264.218 280.833 264.447C279.344 264.676 278.198 266.051 279.344 269.029" fill="#AF709E"/>
<path fill-rule="evenodd" clip-rule="evenodd" d="M274.578 271.199C274.708 271.097 274.896 271.12 274.998 271.25L274.763 271.435L274.526 271.62C274.424 271.49 274.447 271.302 274.578 271.199ZM274.763 271.435L274.526 271.62L274.565 271.669L274.674 271.808C274.769 271.928 274.909 272.104 275.083 272.322C275.43 272.758 275.918 273.364 276.478 274.046C277.596 275.406 279.005 277.075 280.158 278.286C280.272 278.406 280.462 278.41 280.582 278.296C280.702 278.182 280.707 277.992 280.592 277.872C279.455 276.678 278.057 275.024 276.941 273.665C276.384 272.986 275.898 272.382 275.551 271.948C275.378 271.73 275.239 271.556 275.144 271.436L275.036 271.298L274.998 271.25L274.763 271.435Z" fill="#89567E"/>
<path fill-rule="evenodd" clip-rule="evenodd" d="M251.757 279.974C251.849 280.112 251.812 280.298 251.674 280.39C250.591 281.112 248.908 281.579 247.531 281.866C246.836 282.011 246.207 282.112 245.751 282.177C245.523 282.209 245.338 282.233 245.21 282.249C245.147 282.256 245.096 282.262 245.062 282.266L245.023 282.27L245.013 282.271H245.011C245.011 282.271 245.009 282.272 244.979 281.973L245.011 282.271C244.845 282.288 244.697 282.168 244.68 282.004C244.664 281.84 244.784 281.692 244.948 281.675H244.951L244.96 281.674L244.996 281.67C245.029 281.667 245.076 281.661 245.139 281.654C245.263 281.638 245.443 281.615 245.666 281.584C246.113 281.52 246.73 281.421 247.409 281.279C248.782 280.993 250.363 280.543 251.342 279.891C251.48 279.799 251.665 279.837 251.757 279.974Z" fill="#89567E"/>
<path fill-rule="evenodd" clip-rule="evenodd" d="M278.998 268.61C279.102 268.482 279.291 268.463 279.42 268.569L279.229 268.8L279.039 269.032C278.911 268.927 278.892 268.738 278.998 268.61ZM279.229 268.8L279.039 269.032L279.089 269.073L279.235 269.193C279.361 269.297 279.544 269.45 279.771 269.639C280.225 270.018 280.854 270.546 281.554 271.147C282.957 272.349 284.639 273.832 285.776 274.969C285.893 275.086 286.082 275.086 286.2 274.969C286.317 274.852 286.317 274.662 286.2 274.545C285.046 273.391 283.348 271.895 281.945 270.692C281.242 270.089 280.611 269.558 280.155 269.179C279.928 268.989 279.744 268.836 279.617 268.731L279.47 268.611L279.42 268.569L279.229 268.8Z" fill="#89567E"/>
<path fill-rule="evenodd" clip-rule="evenodd" d="M286.446 266.968L283.812 258.491C283.812 258.491 282.094 255.856 281.979 259.292L283.01 266.968H286.446Z" fill="#AF709E"/>
<path fill-rule="evenodd" clip-rule="evenodd" d="M265.859 213.922C266.497 214.066 266.896 214.7 266.751 215.338C265.248 221.957 263.34 226.264 261.192 228.711C260.106 229.949 258.916 230.758 257.645 231.099C256.359 231.444 255.098 231.28 253.943 230.76C251.696 229.748 249.832 227.391 248.518 224.639C247.185 221.848 246.322 218.46 246.202 215.119C246.178 214.465 246.689 213.917 247.342 213.893C247.994 213.869 248.543 214.38 248.566 215.033C248.675 218.048 249.459 221.118 250.653 223.618C251.866 226.158 253.411 227.925 254.915 228.602C255.635 228.926 256.336 228.999 257.032 228.813C257.741 228.623 258.55 228.135 259.414 227.15C261.169 225.151 262.969 221.31 264.444 214.814C264.589 214.177 265.222 213.777 265.859 213.922Z" fill="#78252B"/>
<path fill-rule="evenodd" clip-rule="evenodd" d="M225.848 168.835C223.211 168.835 221.074 170.972 221.074 173.609C221.074 176.245 223.211 178.382 225.848 178.382C228.484 178.382 230.621 176.245 230.621 173.609C230.621 170.972 228.484 168.835 225.848 168.835ZM218.708 173.609C218.708 169.665 221.905 166.468 225.848 166.468C229.791 166.468 232.988 169.665 232.988 173.609C232.988 177.551 229.791 180.748 225.848 180.748C221.905 180.748 218.708 177.551 218.708 173.609Z" fill="white"/>
<path fill-rule="evenodd" clip-rule="evenodd" d="M239.022 168.835C236.385 168.835 234.248 170.972 234.248 173.609C234.248 176.245 236.385 178.382 239.022 178.382C241.658 178.382 243.795 176.245 243.795 173.609C243.795 170.972 241.658 168.835 239.022 168.835ZM231.882 173.609C231.882 169.665 235.078 166.468 239.022 166.468C242.964 166.468 246.161 169.665 246.161 173.609C246.161 177.551 242.964 180.748 239.022 180.748C235.078 180.748 231.882 177.551 231.882 173.609Z" fill="white"/>
<path fill-rule="evenodd" clip-rule="evenodd" d="M302.139 12.0911C295.496 12.0911 289.424 14.3821 284.613 18.1623C280.26 7.96722 270.065 0.750488 258.266 0.750488C245.093 0.750488 233.867 9.68548 230.545 21.8279C223.099 26.0664 218.173 34.0849 218.173 43.249C218.173 56.537 228.712 67.4194 242 67.8776C242.114 67.8776 242.229 67.8776 242.229 67.8776C242.229 67.8776 301.109 67.9922 302.139 67.9922C317.604 67.9922 330.205 55.3915 330.205 39.927C330.205 24.5772 317.604 12.0911 302.139 12.0911Z" fill="white"/>
<path fill-rule="evenodd" clip-rule="evenodd" d="M45.8881 118.624C43.9407 118.624 42.2224 119.311 40.8478 120.342C39.5877 117.363 36.724 115.417 33.2874 115.417C29.5072 115.417 26.2998 117.936 25.3834 121.487C23.2069 122.748 21.8323 125.039 21.8323 127.673C21.8323 131.454 24.8106 134.661 28.7053 134.776C28.7053 134.776 28.7054 134.776 28.8199 134.776C28.8199 134.776 45.659 134.776 46.0026 134.776C50.4701 134.776 54.0212 131.224 54.0212 126.757C53.9067 122.175 50.3555 118.624 45.8881 118.624Z" fill="white"/>
</svg>
