<svg width="20" height="16" viewBox="0 0 20 16" fill="none" xmlns="http://www.w3.org/2000/svg">
<path fill-rule="evenodd" clip-rule="evenodd" d="M4.05234 3.33333C3.60474 3.33333 3.24189 3.63181 3.24189 4V13.3333C3.24189 13.7015 3.60474 14 4.05234 14H15.3988C15.8464 14 16.2092 13.7015 16.2092 13.3333V4C16.2092 3.63181 15.8464 3.33333 15.3988 3.33333H4.05234ZM1.62097 4C1.62097 2.89543 2.70953 2 4.05234 2H15.3988C16.7416 2 17.8301 2.89543 17.8301 4V13.3333C17.8301 14.4379 16.7416 15.3333 15.3988 15.3333H4.05234C2.70953 15.3333 1.62097 14.4379 1.62097 13.3333V4Z" fill="#F30101"/>
<path fill-rule="evenodd" clip-rule="evenodd" d="M1.62097 6.66667C1.62097 6.29848 1.98383 6 2.43143 6H17.0197C17.4673 6 17.8301 6.29848 17.8301 6.66667C17.8301 7.03486 17.4673 7.33333 17.0197 7.33333H2.43143C1.98383 7.33333 1.62097 7.03486 1.62097 6.66667Z" fill="#F30101"/>
<path fill-rule="evenodd" clip-rule="evenodd" d="M12.9673 0.666687C13.4149 0.666687 13.7778 0.965164 13.7778 1.33335V4.00002C13.7778 4.36821 13.4149 4.66669 12.9673 4.66669C12.5197 4.66669 12.1569 4.36821 12.1569 4.00002V1.33335C12.1569 0.965164 12.5197 0.666687 12.9673 0.666687Z" fill="#F30101"/>
<path fill-rule="evenodd" clip-rule="evenodd" d="M6.48368 0.666687C6.93128 0.666687 7.29413 0.965164 7.29413 1.33335V4.00002C7.29413 4.36821 6.93128 4.66669 6.48368 4.66669C6.03607 4.66669 5.67322 4.36821 5.67322 4.00002V1.33335C5.67322 0.965164 6.03607 0.666687 6.48368 0.666687Z" fill="#F30101"/>
</svg>
