<svg width="27" height="28" viewBox="0 0 27 28" fill="none" xmlns="http://www.w3.org/2000/svg">
<path d="M13.25 3.37274H4.5C3.83696 3.37274 3.20107 3.63613 2.73223 4.10497C2.26339 4.57382 2 5.2097 2 5.87274V23.3727C2 24.0358 2.26339 24.6717 2.73223 25.1405C3.20107 25.6093 3.83696 25.8727 4.5 25.8727H22C22.663 25.8727 23.2989 25.6093 23.7678 25.1405C24.2366 24.6717 24.5 24.0358 24.5 23.3727V14.6227" stroke="#F30101" stroke-width="2.5" stroke-linecap="round" stroke-linejoin="round"/>
<path d="M21.2189 2.90397C21.7161 2.40669 22.3906 2.12732 23.0939 2.12732C23.7971 2.12732 24.4716 2.40669 24.9689 2.90397C25.4661 3.40125 25.7455 4.07571 25.7455 4.77897C25.7455 5.48223 25.4661 6.15669 24.9689 6.65397L13.7026 17.9215C13.4058 18.218 13.0391 18.4351 12.6364 18.5527L9.04512 19.6027C8.93756 19.6341 8.82354 19.636 8.715 19.6082C8.60647 19.5804 8.5074 19.5239 8.42818 19.4447C8.34895 19.3654 8.29248 19.2664 8.26467 19.1578C8.23686 19.0493 8.23875 18.9353 8.27012 18.8277L9.32012 15.2365C9.43828 14.834 9.65579 14.4678 9.95262 14.1715L21.2189 2.90397Z" stroke="#F30101" stroke-width="2.5" stroke-linecap="round" stroke-linejoin="round"/>
</svg>
