<svg width="30" height="30" viewBox="0 0 30 30" fill="none" xmlns="http://www.w3.org/2000/svg">
<path d="M22.5 17.5V13.75H18.75V11.25H22.5V7.5H25V11.25H28.75V13.75H25V17.5H22.5ZM11.25 15C9.875 15 8.69792 14.5104 7.71875 13.5312C6.73958 12.5521 6.25 11.375 6.25 10C6.25 8.625 6.73958 7.44792 7.71875 6.46875C8.69792 5.48958 9.875 5 11.25 5C12.625 5 13.8021 5.48958 14.7812 6.46875C15.7604 7.44792 16.25 8.625 16.25 10C16.25 11.375 15.7604 12.5521 14.7812 13.5312C13.8021 14.5104 12.625 15 11.25 15ZM1.25 25V21.5C1.25 20.7917 1.4325 20.1408 1.7975 19.5475C2.1625 18.9542 2.64667 18.5008 3.25 18.1875C4.54167 17.5417 5.85417 17.0575 7.1875 16.735C8.52083 16.4125 9.875 16.2508 11.25 16.25C12.625 16.2492 13.9792 16.4108 15.3125 16.735C16.6458 17.0592 17.9583 17.5433 19.25 18.1875C19.8542 18.5 20.3387 18.9533 20.7038 19.5475C21.0688 20.1417 21.2508 20.7925 21.25 21.5V25H1.25ZM3.75 22.5H18.75V21.5C18.75 21.2708 18.6929 21.0625 18.5788 20.875C18.4646 20.6875 18.3133 20.5417 18.125 20.4375C17 19.875 15.8646 19.4533 14.7188 19.1725C13.5729 18.8917 12.4167 18.7508 11.25 18.75C10.0833 18.7492 8.92708 18.89 7.78125 19.1725C6.63542 19.455 5.5 19.8767 4.375 20.4375C4.1875 20.5417 4.03625 20.6875 3.92125 20.875C3.80625 21.0625 3.74917 21.2708 3.75 21.5V22.5ZM11.25 12.5C11.9375 12.5 12.5262 12.2554 13.0163 11.7663C13.5063 11.2771 13.7508 10.6883 13.75 10C13.7492 9.31167 13.5046 8.72333 13.0163 8.235C12.5279 7.74667 11.9392 7.50167 11.25 7.5C10.5608 7.49833 9.9725 7.74333 9.485 8.235C8.9975 8.72667 8.7525 9.315 8.75 10C8.7475 10.685 8.9925 11.2738 9.485 11.7663C9.9775 12.2587 10.5658 12.5033 11.25 12.5Z" fill="#F30101"/>
</svg>
