<svg width="25" height="27" viewBox="0 0 25 27" fill="none" xmlns="http://www.w3.org/2000/svg">
<path d="M6.11111 3.63153H3.55556C2.87778 3.63153 2.22776 3.90879 1.7485 4.4023C1.26925 4.89582 1 5.56517 1 6.26311V22.0526C1 22.7505 1.26925 23.4199 1.7485 23.9134C2.22776 24.4069 2.87778 24.6842 3.55556 24.6842H10.8351M18.8889 15.4736V20.7368H24M18.8889 11.5263V6.26311C18.8889 5.56517 18.6196 4.89582 18.1404 4.4023C17.6611 3.90879 17.0111 3.63153 16.3333 3.63153H13.7778" stroke="white" stroke-width="1.83333" stroke-linecap="round" stroke-linejoin="round"/>
<path d="M6.11111 11.5263H11.2222M6.11111 16.7895H9.94445M6.11111 3.63158C6.11111 2.93364 6.38036 2.26429 6.85962 1.77077C7.33888 1.27725 7.98889 1 8.66667 1H11.2222C11.9 1 12.55 1.27725 13.0293 1.77077C13.5085 2.26429 13.7778 2.93364 13.7778 3.63158C13.7778 4.32952 13.5085 4.99887 13.0293 5.49239C12.55 5.9859 11.9 6.26316 11.2222 6.26316H8.66667C7.98889 6.26316 7.33888 5.9859 6.85962 5.49239C6.38036 4.99887 6.11111 4.32952 6.11111 3.63158ZM13.7778 20.7368C13.7778 22.1327 14.3163 23.4714 15.2748 24.4585C16.2333 25.4455 17.5333 26 18.8889 26C20.2444 26 21.5445 25.4455 22.503 24.4585C23.4615 23.4714 24 22.1327 24 20.7368C24 19.341 23.4615 18.0023 22.503 17.0152C21.5445 16.0282 20.2444 15.4737 18.8889 15.4737C17.5333 15.4737 16.2333 16.0282 15.2748 17.0152C14.3163 18.0023 13.7778 19.341 13.7778 20.7368Z" stroke="white" stroke-width="1.83333" stroke-linecap="round" stroke-linejoin="round"/>
</svg>
